<svg xmlns="http://www.w3.org/2000/svg" xmlns:xlink="http://www.w3.org/1999/xlink" width="500" zoomAndPan="magnify" viewBox="0 0 375 374.999991" height="500" preserveAspectRatio="xMidYMid meet" version="1.0"><defs><g/><clipPath id="6b00f77715"><path d="M 63.082031 63.082031 L 312.082031 63.082031 L 312.082031 312.082031 L 63.082031 312.082031 Z M 63.082031 63.082031 " clip-rule="nonzero"/></clipPath><clipPath id="a1e7096143"><path d="M 102.25 102.378906 L 272.5 102.378906 L 272.5 149.628906 L 102.25 149.628906 Z M 102.25 102.378906 " clip-rule="nonzero"/></clipPath><clipPath id="a4e76dc4b6"><path d="M 102.25 218.679688 L 272.5 218.679688 L 272.5 272.5 L 102.25 272.5 Z M 102.25 218.679688 " clip-rule="nonzero"/></clipPath></defs><rect x="-37.5" width="450" fill="#ffffff" y="-37.499999" height="449.999989" fill-opacity="1"/><rect x="-37.5" width="450" fill="#ffffff" y="-37.499999" height="449.999989" fill-opacity="1"/><g clip-path="url(#6b00f77715)"><path fill="#000000" d="M 187.582031 312.082031 C 118.957031 312.082031 63.082031 256.210938 63.082031 187.582031 C 63.082031 118.957031 118.957031 63.082031 187.582031 63.082031 C 256.210938 63.082031 312.082031 118.957031 312.082031 187.582031 C 312.082031 256.210938 256.210938 312.082031 187.582031 312.082031 Z M 187.582031 64.921875 C 119.9375 64.921875 64.921875 119.9375 64.921875 187.582031 C 64.921875 255.230469 119.9375 310.242188 187.582031 310.242188 C 255.230469 310.242188 310.242188 255.230469 310.242188 187.582031 C 310.242188 119.9375 255.230469 64.921875 187.582031 64.921875 Z M 187.582031 64.921875 " fill-opacity="1" fill-rule="nonzero"/></g><g clip-path="url(#a1e7096143)"><path fill="#000000" d="M 187.375 272.628906 C 140.449219 272.628906 102.25 234.425781 102.25 187.503906 C 102.25 140.578125 140.449219 102.378906 187.375 102.378906 C 234.296875 102.378906 272.5 140.578125 272.5 187.503906 C 272.5 234.425781 234.296875 272.628906 187.375 272.628906 Z M 187.375 103.636719 C 141.121094 103.636719 103.507812 141.25 103.507812 187.503906 C 103.507812 233.753906 141.121094 271.371094 187.375 271.371094 C 233.628906 271.371094 271.242188 233.753906 271.242188 187.503906 C 271.242188 141.25 233.628906 103.636719 187.375 103.636719 Z M 187.375 103.636719 " fill-opacity="1" fill-rule="nonzero"/></g><g clip-path="url(#a4e76dc4b6)"><path fill="#000000" d="M 187.375 272.5 C 140.449219 272.5 102.25 234.296875 102.25 187.375 C 102.25 140.449219 140.449219 102.25 187.375 102.25 C 234.296875 102.25 272.5 140.449219 272.5 187.375 C 272.5 234.296875 234.296875 272.5 187.375 272.5 Z M 187.375 103.507812 C 141.121094 103.507812 103.507812 141.121094 103.507812 187.375 C 103.507812 233.628906 141.121094 271.242188 187.375 271.242188 C 233.628906 271.242188 271.242188 233.628906 271.242188 187.375 C 271.242188 141.121094 233.628906 103.507812 187.375 103.507812 Z M 187.375 103.507812 " fill-opacity="1" fill-rule="nonzero"/></g><g fill="#000000" fill-opacity="1"><g transform="translate(85.079809, 199.714864)"><g><path d="M 13.691406 -0.925781 C 14.558594 -0.589844 15.453125 -0.449219 16.378906 -0.589844 C 16.546875 -0.617188 16.828125 -0.617188 16.828125 -0.8125 C 16.828125 -1.0625 16.546875 -0.980469 16.40625 -1.007812 C 16.351562 -1.007812 16.324219 -1.007812 16.292969 -1.007812 C 14.980469 -0.953125 13.859375 -1.511719 12.824219 -2.269531 C 9.96875 -4.339844 7.644531 -6.914062 6.019531 -10.078125 C 4.003906 -14.082031 3.917969 -18.113281 5.796875 -22.175781 C 7.476562 -25.8125 10.023438 -28.726562 13.328125 -30.992188 C 15.089844 -32.195312 16.964844 -33.121094 19.09375 -33.484375 C 21.304688 -33.820312 23.015625 -33.09375 24.300781 -31.273438 C 24.945312 -30.320312 25.421875 -29.3125 25.757812 -28.222656 C 26.765625 -24.695312 26.511719 -21.136719 25.671875 -17.636719 C 24.078125 -10.917969 21.417969 -4.621094 18.140625 1.457031 C 18.003906 1.707031 17.835938 1.902344 17.554688 2.042969 C 16.6875 2.492188 15.847656 2.996094 15.0625 3.582031 C 13.074219 5.011719 11.226562 6.578125 9.828125 8.59375 C 9.238281 9.464844 8.734375 10.386719 8.707031 11.480469 C 8.707031 12.152344 8.960938 12.429688 9.601562 12.570312 C 10.273438 12.710938 10.890625 12.542969 11.480469 12.207031 C 12.234375 11.785156 12.851562 11.171875 13.4375 10.554688 C 15.789062 8.035156 17.5 5.125 19.179688 2.15625 C 19.289062 1.933594 19.457031 1.765625 19.683594 1.652344 C 21.726562 0.757812 23.742188 -0.113281 25.8125 -0.925781 C 25.953125 -0.980469 26.289062 -0.980469 26.207031 -1.230469 C 26.148438 -1.429688 25.871094 -1.371094 25.671875 -1.316406 C 25.449219 -1.289062 25.226562 -1.203125 25.03125 -1.121094 C 23.519531 -0.617188 22.0625 0 20.605469 0.617188 C 20.410156 0.699219 20.214844 0.839844 19.90625 0.839844 C 20.019531 0.617188 20.101562 0.390625 20.214844 0.195312 C 22.371094 -4.003906 24.328125 -8.316406 25.730469 -12.851562 C 26.90625 -16.601562 27.886719 -20.382812 27.632812 -24.386719 C 27.492188 -26.710938 27.046875 -28.921875 25.785156 -30.910156 C 24.554688 -32.867188 22.847656 -34.015625 20.464844 -34.074219 C 18.199219 -34.128906 16.125 -33.484375 14.222656 -32.363281 C 9.996094 -29.957031 6.914062 -26.511719 4.898438 -22.117188 C 2.96875 -17.863281 3.109375 -13.636719 5.292969 -9.519531 C 6.832031 -6.664062 8.875 -4.253906 11.421875 -2.269531 C 12.121094 -1.734375 12.878906 -1.261719 13.691406 -0.925781 Z M 15.511719 5.964844 C 14.363281 7.839844 13.074219 9.632812 11.449219 11.144531 C 11.085938 11.480469 10.722656 11.785156 10.273438 12.011719 C 9.828125 12.234375 9.601562 12.121094 9.574219 11.617188 C 9.546875 11.144531 9.660156 10.695312 9.828125 10.273438 C 10.164062 9.433594 10.667969 8.679688 11.226562 7.980469 C 12.878906 5.90625 14.921875 4.285156 17.273438 2.996094 C 16.6875 3.976562 16.097656 4.984375 15.511719 5.964844 Z M 15.511719 5.964844 "/></g></g></g><g fill="#000000" fill-opacity="1"><g transform="translate(115.007721, 199.714864)"><g><path d="M 1.734375 -2.492188 C 1.765625 -2.546875 1.792969 -2.574219 1.820312 -2.632812 C 2.4375 -3.246094 2.855469 -3.976562 3.191406 -4.789062 C 3.5 -5.515625 3.667969 -6.269531 3.582031 -7.082031 C 3.445312 -8.34375 2.4375 -9.15625 1.175781 -8.988281 C 0.113281 -8.847656 -0.757812 -8.34375 -1.398438 -7.503906 C -1.734375 -7.082031 -1.960938 -6.605469 -1.988281 -6.074219 C -2.015625 -5.234375 -1.820312 -4.453125 -1.371094 -3.75 C -1.203125 -3.5 -1.203125 -3.332031 -1.34375 -3.078125 C -1.597656 -2.632812 -1.765625 -2.15625 -1.765625 -1.625 C -1.734375 -0.757812 -0.953125 -0.308594 -0.222656 -0.757812 C -0.140625 -0.785156 -0.0859375 -0.839844 0 -0.894531 C 0.363281 -1.175781 0.757812 -1.457031 1.09375 -1.792969 C 1.203125 -1.902344 1.289062 -1.960938 1.457031 -1.933594 C 3.078125 -1.289062 7.28125 -2.40625 11.113281 -4.789062 C 11.03125 -4.816406 10.835938 -4.957031 10.609375 -4.816406 C 8.707031 -3.695312 5.515625 -2.714844 4.984375 -2.605469 C 2.800781 -2.183594 1.707031 -2.351562 1.707031 -2.351562 C 1.734375 -2.464844 1.734375 -2.492188 1.734375 -2.492188 Z M 0.253906 -2.070312 C -0.0859375 -1.707031 -0.421875 -1.371094 -0.925781 -1.230469 C -0.980469 -1.289062 -0.980469 -1.34375 -0.953125 -1.429688 C -0.867188 -1.792969 -0.726562 -2.15625 -0.53125 -2.492188 C -0.449219 -2.632812 -0.363281 -2.660156 -0.222656 -2.546875 C -0.0859375 -2.464844 0.0546875 -2.378906 0.222656 -2.296875 C 0.308594 -2.238281 0.335938 -2.15625 0.253906 -2.070312 Z M 0.980469 -2.882812 C 0.925781 -2.828125 0.894531 -2.742188 0.839844 -2.714844 C 0.757812 -2.6875 0.757812 -2.6875 0.476562 -2.828125 C -0.253906 -3.191406 -0.113281 -3.136719 0.113281 -3.472656 C 0.421875 -3.863281 0.785156 -4.199219 1.148438 -4.507812 C 1.511719 -4.816406 1.539062 -4.871094 1.34375 -5.152344 C 1.09375 -5.515625 0.757812 -5.597656 0.449219 -5.402344 C 0.113281 -5.179688 -0.140625 -4.925781 -0.363281 -4.621094 C -0.53125 -4.394531 -0.726562 -4.144531 -0.925781 -3.863281 C -2.015625 -5.320312 -0.726562 -8.089844 1.398438 -7.953125 C 1.398438 -7.953125 2.773438 -7.785156 2.351562 -5.765625 C 2.128906 -4.703125 1.707031 -3.695312 0.980469 -2.882812 Z M 0.980469 -2.882812 "/></g></g></g><g fill="#000000" fill-opacity="1"><g transform="translate(125.534282, 199.714864)"><g><path d="M 17.050781 -4.367188 C 15.484375 -3.554688 14.027344 -2.605469 12.710938 -1.429688 C 10.976562 0.113281 9.464844 1.875 7.894531 3.582031 C 7.082031 4.480469 6.214844 5.347656 5.152344 5.933594 C 4.5625 6.300781 4.253906 6.132812 4.171875 5.488281 C 4.144531 5.292969 4.144531 5.09375 4.171875 4.898438 C 4.226562 4.507812 4.3125 4.117188 4.421875 3.75 C 4.925781 2.101562 5.65625 0.53125 6.46875 -1.007812 C 7.222656 -2.492188 8.007812 -3.976562 8.761719 -5.460938 C 9.097656 -6.101562 9.351562 -6.832031 9.492188 -7.53125 C 9.6875 -8.398438 9.296875 -8.847656 8.398438 -8.847656 C 7.894531 -8.820312 7.476562 -8.59375 7.054688 -8.34375 C 5.738281 -7.476562 4.589844 -6.355469 3.445312 -5.292969 C 2.574219 -4.480469 1.734375 -3.613281 0.726562 -2.910156 C 0.757812 -3.75 0.953125 -4.5625 1.230469 -5.320312 C 2.269531 -8.175781 3.445312 -10.976562 4.789062 -13.691406 C 5.597656 -15.453125 6.523438 -17.132812 7.449219 -18.8125 C 9.265625 -22.117188 11.226562 -25.367188 13.296875 -28.5 C 13.804688 -29.257812 14.25 -30.070312 14.671875 -30.882812 C 14.867188 -31.273438 14.78125 -31.414062 14.363281 -31.554688 C 13.859375 -31.722656 13.496094 -31.609375 13.160156 -31.132812 C 12.488281 -30.152344 11.816406 -29.203125 11.171875 -28.25 C 8.847656 -24.722656 6.691406 -21.109375 4.757812 -17.386719 C 3.136719 -14.195312 1.597656 -10.976562 0.28125 -7.644531 C -0.308594 -6.1875 -0.785156 -4.703125 -0.839844 -3.136719 C -0.894531 -2.210938 -0.421875 -1.792969 0.476562 -1.875 C 0.8125 -1.902344 1.09375 -2.042969 1.371094 -2.238281 C 1.652344 -2.492188 1.933594 -2.714844 2.183594 -2.96875 C 3.5 -4.199219 4.757812 -5.488281 6.132812 -6.636719 C 6.71875 -7.113281 7.308594 -7.617188 8.007812 -7.894531 C 8.148438 -7.699219 8.0625 -7.53125 7.980469 -7.363281 C 7.839844 -7 7.671875 -6.605469 7.503906 -6.242188 C 6.886719 -4.84375 6.046875 -3.582031 5.375 -2.238281 C 4.535156 -0.644531 3.722656 0.925781 3.277344 2.660156 C 3.050781 3.582031 2.828125 4.507812 3.078125 5.488281 C 3.277344 6.269531 3.695312 6.605469 4.507812 6.605469 C 5.152344 6.636719 5.710938 6.382812 6.1875 5.992188 C 6.777344 5.570312 7.308594 5.09375 7.8125 4.589844 C 9.097656 3.277344 10.386719 1.988281 11.675781 0.644531 C 13.496094 -1.203125 15.425781 -2.882812 17.695312 -4.144531 C 17.835938 -4.226562 18.03125 -4.285156 17.972656 -4.507812 C 17.527344 -4.589844 17.527344 -4.589844 17.050781 -4.367188 Z M 17.050781 -4.367188 "/></g></g></g><g fill="#000000" fill-opacity="1"><g transform="translate(142.723936, 199.714864)"><g><path d="M 18.058594 -5.292969 C 17.945312 -5.292969 17.835938 -5.234375 17.75 -5.207031 C 16.660156 -4.675781 15.566406 -4.117188 14.53125 -3.5 C 13.074219 -2.605469 11.617188 -1.707031 10.050781 -0.953125 C 9.265625 -0.589844 8.457031 -0.167969 7.585938 -0.0273438 C 6.664062 0.113281 6.46875 -0.0859375 6.550781 -0.980469 C 6.550781 -1.035156 6.550781 -1.121094 6.550781 -1.175781 C 6.664062 -1.875 6.886719 -2.519531 7.195312 -3.136719 C 7.617188 -4.03125 8.0625 -4.898438 8.511719 -5.765625 C 8.734375 -6.214844 8.902344 -6.664062 9.042969 -7.140625 C 9.210938 -7.785156 8.960938 -8.289062 8.484375 -8.707031 C 8.007812 -9.097656 7.558594 -8.929688 7.113281 -8.679688 C 6.605469 -8.398438 6.1875 -8.035156 5.765625 -7.644531 C 4.253906 -6.300781 2.828125 -4.871094 1.429688 -3.445312 C 1.175781 -3.164062 0.925781 -2.910156 0.476562 -2.800781 C 0.503906 -3.191406 0.644531 -3.5 0.785156 -3.808594 C 1.148438 -4.621094 1.625 -5.375 2.128906 -6.101562 C 2.605469 -6.71875 2.464844 -7.28125 1.847656 -7.671875 C 1.566406 -7.839844 1.34375 -7.839844 1.121094 -7.617188 C -0.0546875 -6.46875 -0.785156 -5.125 -0.726562 -3.414062 C -0.699219 -2.882812 -0.503906 -2.4375 -0.167969 -2.042969 C 0.222656 -1.597656 0.589844 -1.539062 1.0625 -1.902344 C 1.261719 -2.042969 1.457031 -2.183594 1.625 -2.351562 C 2.996094 -3.722656 4.285156 -5.207031 5.765625 -6.46875 C 6.382812 -7 6.972656 -7.503906 7.894531 -7.8125 C 7.53125 -6.914062 7.054688 -6.214844 6.636719 -5.515625 C 5.851562 -4.171875 5.515625 -2.742188 5.65625 -1.230469 C 5.765625 0.0546875 6.746094 1.203125 8.398438 0.617188 C 9.324219 0.28125 10.21875 -0.113281 11.058594 -0.589844 C 12.683594 -1.457031 14.195312 -2.4375 15.761719 -3.359375 C 16.574219 -3.808594 17.359375 -4.253906 18.140625 -4.703125 C 18.253906 -4.789062 18.449219 -4.816406 18.394531 -5.039062 C 18.339844 -5.179688 18.226562 -5.292969 18.058594 -5.292969 Z M 18.058594 -5.292969 "/></g></g></g><g fill="#000000" fill-opacity="1"><g transform="translate(160.361535, 199.714864)"><g/></g></g><g fill="#000000" fill-opacity="1"><g transform="translate(171.560013, 199.714864)"><g><path d="M 10.136719 7.417969 C 13.101562 6.523438 15.929688 5.292969 18.730469 4.085938 C 19.066406 3.949219 19.289062 3.917969 19.597656 4.085938 C 23.015625 5.933594 26.625 6.832031 30.515625 6.300781 C 32.757812 5.992188 34.886719 5.375 36.703125 3.917969 C 37.488281 3.304688 38.078125 2.574219 38.414062 1.625 C 38.777344 0.53125 38.46875 -0.390625 37.542969 -1.0625 C 36.507812 -1.820312 35.304688 -1.988281 34.074219 -1.933594 C 31.917969 -1.847656 29.875 -1.371094 27.828125 -0.726562 C 24.863281 0.167969 21.949219 1.316406 19.148438 2.632812 C 18.925781 2.742188 18.757812 2.828125 18.507812 2.660156 C 17.191406 1.792969 15.957031 0.8125 14.980469 -0.476562 C 13.296875 -2.660156 12.542969 -5.179688 12.289062 -7.894531 C 12.039062 -10.5 12.488281 -12.933594 14 -15.0625 C 16.378906 -18.476562 19.515625 -20.382812 23.824219 -19.738281 C 25.367188 -19.515625 26.710938 -18.8125 27.464844 -17.386719 C 28.082031 -16.183594 28.894531 -15.117188 29.59375 -13.972656 C 29.675781 -13.804688 29.816406 -13.664062 29.984375 -13.578125 C 30.238281 -13.382812 30.546875 -13.269531 30.796875 -13.46875 C 31.019531 -13.664062 30.769531 -13.914062 30.683594 -14.109375 C 29.957031 -15.679688 29.230469 -17.246094 28.613281 -18.871094 C 27.828125 -20.96875 27.269531 -23.125 27.550781 -25.394531 C 27.828125 -27.550781 28.585938 -29.539062 30.433594 -30.851562 C 32.730469 -32.503906 34.410156 -32.195312 35.976562 -30.292969 C 36.003906 -30.265625 36.003906 -30.265625 36.03125 -30.238281 C 37.628906 -28.25 38.582031 -26.007812 38.917969 -23.519531 C 38.945312 -23.152344 39.027344 -22.816406 39.167969 -22.511719 C 39.28125 -22.257812 39.503906 -22.175781 39.785156 -22.175781 C 40.0625 -22.175781 40.0625 -22.398438 40.121094 -22.59375 C 40.175781 -22.761719 40.175781 -22.929688 40.203125 -23.097656 C 40.230469 -26.402344 37.710938 -30.9375 35.332031 -32.058594 C 33.511719 -32.898438 31.722656 -32.898438 29.957031 -31.945312 C 27.492188 -30.628906 26.429688 -28.363281 25.980469 -25.757812 C 25.644531 -23.742188 26.039062 -21.78125 26.597656 -19.851562 C 26.625 -19.683594 26.738281 -19.570312 26.652344 -19.402344 C 26.625 -19.402344 26.570312 -19.402344 26.570312 -19.429688 C 26.484375 -19.457031 26.402344 -19.515625 26.316406 -19.570312 C 24.359375 -20.773438 22.230469 -21.136719 19.988281 -20.71875 C 15.820312 -19.933594 13.128906 -17.273438 11.589844 -13.46875 C 9.714844 -8.875 11.253906 -2.773438 14.980469 0.839844 C 15.847656 1.679688 16.828125 2.4375 17.945312 3.164062 C 14.894531 4.507812 11.953125 5.878906 8.792969 6.746094 C 5.460938 7.671875 2.378906 7.753906 1.988281 4.285156 C 1.988281 3.582031 1.652344 3.414062 1.371094 3.414062 C 1.148438 3.386719 1.0625 3.582031 1.09375 3.808594 C 1.875 8.175781 6.214844 8.59375 10.136719 7.417969 Z M 25 1.484375 C 27.886719 0.363281 30.796875 -0.617188 33.90625 -0.894531 C 34.605469 -0.953125 35.304688 -0.980469 36.003906 -0.925781 C 36.984375 -0.8125 37.207031 -0.503906 37.070312 0.449219 C 36.929688 1.398438 36.453125 2.183594 35.695312 2.800781 C 34.4375 3.863281 32.925781 4.507812 31.328125 4.898438 C 27.523438 5.824219 23.855469 5.429688 20.355469 3.667969 C 20.296875 3.640625 20.242188 3.582031 20.074219 3.5 C 21.78125 2.800781 23.378906 2.101562 25 1.484375 Z M 25 1.484375 "/></g></g></g><g fill="#000000" fill-opacity="1"><g transform="translate(212.714395, 199.714864)"><g><path d="M 12.597656 -4.816406 C 11.3125 -4.171875 10.105469 -3.414062 9.015625 -2.464844 C 7.558594 -1.230469 6.160156 0.113281 4.757812 1.429688 C 3.667969 2.492188 2.574219 3.554688 1.289062 4.394531 C 0.785156 4.730469 0.222656 4.984375 -0.363281 5.125 C -0.894531 5.207031 -1.007812 5.152344 -1.230469 4.675781 C -1.429688 4.226562 -1.457031 3.75 -1.457031 3.277344 C -1.511719 1.933594 -1.121094 0.671875 -0.726562 -0.558594 C -0.0273438 -2.6875 0.867188 -4.703125 1.875 -6.664062 C 2.183594 -7.28125 2.519531 -7.867188 2.828125 -8.484375 L 2.855469 -8.484375 C 10.164062 -16.660156 17.441406 -28.613281 17.609375 -30.628906 C 17.777344 -31.078125 17.191406 -32.058594 16.714844 -31.664062 C 16.492188 -31.46875 16.238281 -31.273438 16.042969 -31.050781 C 14.699219 -29.566406 13.382812 -28.054688 12.121094 -26.484375 C 10.640625 -24.664062 9.296875 -22.734375 8.007812 -20.746094 C 6.71875 -18.703125 5.460938 -16.6875 4.253906 -14.585938 C 2.882812 -12.234375 1.597656 -9.855469 0.390625 -7.417969 C -0.421875 -5.851562 -1.175781 -4.253906 -1.765625 -2.574219 C -2.324219 -0.953125 -2.714844 0.671875 -2.714844 2.40625 C -2.714844 3.078125 -2.574219 3.695312 -2.324219 4.285156 C -1.875 5.402344 -0.839844 5.90625 0.335938 5.597656 C 0.558594 5.542969 0.785156 5.429688 1.007812 5.347656 C 1.707031 5.011719 2.296875 4.535156 2.882812 4.058594 C 4.648438 2.632812 6.242188 1.0625 7.867188 -0.503906 C 8.652344 -1.230469 9.433594 -2.015625 10.246094 -2.742188 C 11.199219 -3.582031 12.261719 -4.253906 13.523438 -4.816406 C 13.128906 -5.066406 12.851562 -4.957031 12.597656 -4.816406 Z M 4.898438 -12.289062 C 6.691406 -15.453125 8.59375 -18.535156 10.609375 -21.585938 C 12.207031 -23.964844 14.027344 -26.207031 15.789062 -28.472656 C 16.125 -28.894531 16.460938 -29.3125 16.796875 -29.734375 C 16.15625 -28.332031 14.839844 -26.007812 12.792969 -22.789062 C 10.023438 -18.421875 6.914062 -14.167969 4.03125 -10.722656 C 4.3125 -11.253906 4.621094 -11.785156 4.898438 -12.289062 Z M 4.898438 -12.289062 "/></g></g></g><g fill="#000000" fill-opacity="1"><g transform="translate(225.144703, 199.714864)"><g><path d="M 12.597656 -4.816406 C 11.3125 -4.171875 10.105469 -3.414062 9.015625 -2.464844 C 7.558594 -1.230469 6.160156 0.113281 4.757812 1.429688 C 3.667969 2.492188 2.574219 3.554688 1.289062 4.394531 C 0.785156 4.730469 0.222656 4.984375 -0.363281 5.125 C -0.894531 5.207031 -1.007812 5.152344 -1.230469 4.675781 C -1.429688 4.226562 -1.457031 3.75 -1.457031 3.277344 C -1.511719 1.933594 -1.121094 0.671875 -0.726562 -0.558594 C -0.0273438 -2.6875 0.867188 -4.703125 1.875 -6.664062 C 2.183594 -7.28125 2.519531 -7.867188 2.828125 -8.484375 L 2.855469 -8.484375 C 10.164062 -16.660156 17.441406 -28.613281 17.609375 -30.628906 C 17.777344 -31.078125 17.191406 -32.058594 16.714844 -31.664062 C 16.492188 -31.46875 16.238281 -31.273438 16.042969 -31.050781 C 14.699219 -29.566406 13.382812 -28.054688 12.121094 -26.484375 C 10.640625 -24.664062 9.296875 -22.734375 8.007812 -20.746094 C 6.71875 -18.703125 5.460938 -16.6875 4.253906 -14.585938 C 2.882812 -12.234375 1.597656 -9.855469 0.390625 -7.417969 C -0.421875 -5.851562 -1.175781 -4.253906 -1.765625 -2.574219 C -2.324219 -0.953125 -2.714844 0.671875 -2.714844 2.40625 C -2.714844 3.078125 -2.574219 3.695312 -2.324219 4.285156 C -1.875 5.402344 -0.839844 5.90625 0.335938 5.597656 C 0.558594 5.542969 0.785156 5.429688 1.007812 5.347656 C 1.707031 5.011719 2.296875 4.535156 2.882812 4.058594 C 4.648438 2.632812 6.242188 1.0625 7.867188 -0.503906 C 8.652344 -1.230469 9.433594 -2.015625 10.246094 -2.742188 C 11.199219 -3.582031 12.261719 -4.253906 13.523438 -4.816406 C 13.128906 -5.066406 12.851562 -4.957031 12.597656 -4.816406 Z M 4.898438 -12.289062 C 6.691406 -15.453125 8.59375 -18.535156 10.609375 -21.585938 C 12.207031 -23.964844 14.027344 -26.207031 15.789062 -28.472656 C 16.125 -28.894531 16.460938 -29.3125 16.796875 -29.734375 C 16.15625 -28.332031 14.839844 -26.007812 12.792969 -22.789062 C 10.023438 -18.421875 6.914062 -14.167969 4.03125 -10.722656 C 4.3125 -11.253906 4.621094 -11.785156 4.898438 -12.289062 Z M 4.898438 -12.289062 "/></g></g></g><g fill="#000000" fill-opacity="1"><g transform="translate(237.575012, 199.714864)"><g><path d="M 2.238281 -6.746094 C 1.875 -7.054688 1.566406 -7.054688 1.203125 -6.71875 C 1.0625 -6.578125 0.925781 -6.4375 0.785156 -6.300781 C -0.925781 -4.003906 -2.269531 -1.566406 -2.546875 1.34375 C -2.660156 2.101562 -2.632812 2.855469 -2.464844 3.613281 C -2.324219 4.199219 -2.070312 4.789062 -1.679688 5.292969 C -0.894531 6.214844 -0.0273438 6.328125 0.980469 5.683594 C 1.148438 5.570312 1.316406 5.402344 1.484375 5.261719 C 2.910156 4.058594 4.171875 2.6875 5.460938 1.34375 C 7.027344 -0.308594 8.734375 -1.707031 10.808594 -2.714844 C 11.984375 -3.277344 13.101562 -3.890625 14.335938 -4.339844 C 14.445312 -4.367188 14.558594 -4.394531 14.53125 -4.535156 C 14.53125 -4.648438 14.417969 -4.703125 14.308594 -4.703125 C 14.082031 -4.730469 13.914062 -4.648438 13.746094 -4.5625 C 13.101562 -4.285156 12.457031 -4.003906 11.84375 -3.695312 C 10.609375 -3.109375 9.324219 -2.574219 8.148438 -1.820312 C 6.4375 -0.785156 4.984375 0.589844 3.613281 2.042969 C 2.828125 2.828125 2.128906 3.695312 1.203125 4.3125 C 0.671875 4.675781 0.167969 5.039062 -0.503906 5.066406 C -1.007812 5.09375 -1.148438 4.984375 -1.261719 4.507812 C -1.398438 3.917969 -1.398438 3.332031 -1.34375 2.742188 C -1.121094 0.558594 -0.28125 -1.429688 0.839844 -3.304688 C 1.34375 -4.144531 1.875 -4.898438 2.378906 -5.710938 C 2.632812 -6.132812 2.574219 -6.46875 2.238281 -6.746094 Z M 3.527344 -8.121094 C 3.78125 -8.035156 3.949219 -8.203125 3.917969 -8.457031 C 3.917969 -8.875 3.445312 -9.296875 2.96875 -9.351562 C 2.714844 -9.378906 2.574219 -9.210938 2.660156 -8.960938 C 2.800781 -8.539062 3.136719 -8.257812 3.527344 -8.121094 Z M 3.527344 -8.121094 "/></g></g></g><g fill="#000000" fill-opacity="1"><g transform="translate(251.713088, 199.714864)"><g><path d="M 1.734375 -2.492188 C 1.765625 -2.546875 1.792969 -2.574219 1.820312 -2.632812 C 2.4375 -3.246094 2.855469 -3.976562 3.191406 -4.789062 C 3.5 -5.515625 3.667969 -6.269531 3.582031 -7.082031 C 3.445312 -8.34375 2.4375 -9.15625 1.175781 -8.988281 C 0.113281 -8.847656 -0.757812 -8.34375 -1.398438 -7.503906 C -1.734375 -7.082031 -1.960938 -6.605469 -1.988281 -6.074219 C -2.015625 -5.234375 -1.820312 -4.453125 -1.371094 -3.75 C -1.203125 -3.5 -1.203125 -3.332031 -1.34375 -3.078125 C -1.597656 -2.632812 -1.765625 -2.15625 -1.765625 -1.625 C -1.734375 -0.757812 -0.953125 -0.308594 -0.222656 -0.757812 C -0.140625 -0.785156 -0.0859375 -0.839844 0 -0.894531 C 0.363281 -1.175781 0.757812 -1.457031 1.09375 -1.792969 C 1.203125 -1.902344 1.289062 -1.960938 1.457031 -1.933594 C 3.078125 -1.289062 7.28125 -2.40625 11.113281 -4.789062 C 11.03125 -4.816406 10.835938 -4.957031 10.609375 -4.816406 C 8.707031 -3.695312 5.515625 -2.714844 4.984375 -2.605469 C 2.800781 -2.183594 1.707031 -2.351562 1.707031 -2.351562 C 1.734375 -2.464844 1.734375 -2.492188 1.734375 -2.492188 Z M 0.253906 -2.070312 C -0.0859375 -1.707031 -0.421875 -1.371094 -0.925781 -1.230469 C -0.980469 -1.289062 -0.980469 -1.34375 -0.953125 -1.429688 C -0.867188 -1.792969 -0.726562 -2.15625 -0.53125 -2.492188 C -0.449219 -2.632812 -0.363281 -2.660156 -0.222656 -2.546875 C -0.0859375 -2.464844 0.0546875 -2.378906 0.222656 -2.296875 C 0.308594 -2.238281 0.335938 -2.15625 0.253906 -2.070312 Z M 0.980469 -2.882812 C 0.925781 -2.828125 0.894531 -2.742188 0.839844 -2.714844 C 0.757812 -2.6875 0.757812 -2.6875 0.476562 -2.828125 C -0.253906 -3.191406 -0.113281 -3.136719 0.113281 -3.472656 C 0.421875 -3.863281 0.785156 -4.199219 1.148438 -4.507812 C 1.511719 -4.816406 1.539062 -4.871094 1.34375 -5.152344 C 1.09375 -5.515625 0.757812 -5.597656 0.449219 -5.402344 C 0.113281 -5.179688 -0.140625 -4.925781 -0.363281 -4.621094 C -0.53125 -4.394531 -0.726562 -4.144531 -0.925781 -3.863281 C -2.015625 -5.320312 -0.726562 -8.089844 1.398438 -7.953125 C 1.398438 -7.953125 2.773438 -7.785156 2.351562 -5.765625 C 2.128906 -4.703125 1.707031 -3.695312 0.980469 -2.882812 Z M 0.980469 -2.882812 "/></g></g></g><g fill="#000000" fill-opacity="1"><g transform="translate(262.239649, 199.714864)"><g><path d="M 14.558594 -4.453125 C 14.308594 -4.730469 14.082031 -4.648438 13.859375 -4.5625 C 13.496094 -4.394531 13.128906 -4.226562 12.792969 -4.003906 C 10.640625 -2.605469 8.511719 -1.175781 6.4375 0.390625 C 4.984375 1.511719 3.554688 2.714844 1.847656 3.5 C 0.644531 4.03125 -0.253906 3.5 -0.390625 2.183594 C -0.421875 1.902344 -0.421875 1.625 -0.390625 1.34375 C -0.167969 -0.671875 0.253906 -2.660156 1.007812 -4.507812 C 4.03125 -11.84375 7.839844 -18.703125 12.234375 -25.28125 C 12.457031 -25.589844 12.683594 -25.617188 12.992188 -25.5625 C 14.53125 -25.253906 16.042969 -24.945312 17.554688 -24.664062 C 22.117188 -23.855469 26.679688 -23.210938 31.300781 -23.910156 C 32.757812 -24.105469 34.296875 -24.246094 35.222656 -25.671875 C 35.277344 -25.8125 35.527344 -25.871094 35.390625 -26.066406 C 35.277344 -26.207031 35.082031 -26.175781 34.941406 -26.121094 C 34.6875 -26.039062 34.464844 -25.898438 34.324219 -25.671875 C 34.183594 -25.449219 34.015625 -25.28125 33.792969 -25.199219 C 33.175781 -25.03125 32.617188 -24.777344 32 -24.695312 C 29.675781 -24.300781 27.355469 -24.191406 25.03125 -24.273438 C 21.027344 -24.414062 17.164062 -25.253906 13.269531 -26.007812 C 12.851562 -26.121094 12.90625 -26.261719 13.101562 -26.542969 C 13.691406 -27.382812 14.308594 -28.25 14.894531 -29.117188 C 15.035156 -29.339844 15.285156 -29.59375 15.0625 -29.875 C 14.867188 -30.125 14.53125 -30.210938 14.195312 -30.179688 C 13.859375 -30.125 13.664062 -29.902344 13.46875 -29.675781 C 12.738281 -28.78125 12.066406 -27.828125 11.449219 -26.878906 C 11.253906 -26.570312 11.058594 -26.511719 10.722656 -26.570312 C 9.378906 -26.847656 8.0625 -27.101562 6.746094 -27.324219 C 2.910156 -27.96875 -0.925781 -28.195312 -4.789062 -27.691406 C -6.550781 -27.464844 -8.289062 -27.074219 -9.882812 -26.261719 C -10.441406 -25.953125 -10.976562 -25.644531 -11.253906 -25.03125 C -11.480469 -24.636719 -11.28125 -24.300781 -10.777344 -24.132812 C -10.5 -24.050781 -10.105469 -23.855469 -10.21875 -24.496094 C -10.246094 -24.582031 -10.078125 -24.695312 -9.96875 -24.804688 C -9.433594 -25.308594 -8.792969 -25.644531 -8.089844 -25.871094 C -7.140625 -26.207031 -6.132812 -26.484375 -5.125 -26.652344 C 0.0859375 -27.464844 5.261719 -27.019531 10.414062 -26.039062 C 10.945312 -25.953125 10.667969 -25.730469 10.554688 -25.503906 C 9.714844 -24.21875 8.902344 -22.929688 8.089844 -21.640625 C 5.261719 -17.164062 2.464844 -12.625 0.449219 -7.699219 C -0.699219 -4.925781 -1.429688 -2.015625 -1.539062 1.007812 C -1.625 3.5 0.335938 4.789062 2.605469 3.695312 C 3.386719 3.304688 4.144531 2.828125 4.871094 2.324219 C 8.089844 0.0859375 11.144531 -2.464844 14.558594 -4.453125 Z M 14.558594 -4.453125 "/></g></g></g><g fill="#000000" fill-opacity="1"><g transform="translate(276.069764, 199.714864)"><g><path d="M 14.558594 -4.453125 C 14.308594 -4.730469 14.082031 -4.648438 13.859375 -4.5625 C 13.496094 -4.394531 13.128906 -4.226562 12.792969 -4.003906 C 10.640625 -2.605469 8.511719 -1.175781 6.4375 0.390625 C 4.984375 1.511719 3.554688 2.714844 1.847656 3.5 C 0.644531 4.03125 -0.253906 3.5 -0.390625 2.183594 C -0.421875 1.902344 -0.421875 1.625 -0.390625 1.34375 C -0.167969 -0.671875 0.253906 -2.660156 1.007812 -4.507812 C 4.03125 -11.84375 7.839844 -18.703125 12.234375 -25.28125 C 12.457031 -25.589844 12.683594 -25.617188 12.992188 -25.5625 C 14.53125 -25.253906 16.042969 -24.945312 17.554688 -24.664062 C 22.117188 -23.855469 26.679688 -23.210938 31.300781 -23.910156 C 32.757812 -24.105469 34.296875 -24.246094 35.222656 -25.671875 C 35.277344 -25.8125 35.527344 -25.871094 35.390625 -26.066406 C 35.277344 -26.207031 35.082031 -26.175781 34.941406 -26.121094 C 34.6875 -26.039062 34.464844 -25.898438 34.324219 -25.671875 C 34.183594 -25.449219 34.015625 -25.28125 33.792969 -25.199219 C 33.175781 -25.03125 32.617188 -24.777344 32 -24.695312 C 29.675781 -24.300781 27.355469 -24.191406 25.03125 -24.273438 C 21.027344 -24.414062 17.164062 -25.253906 13.269531 -26.007812 C 12.851562 -26.121094 12.90625 -26.261719 13.101562 -26.542969 C 13.691406 -27.382812 14.308594 -28.25 14.894531 -29.117188 C 15.035156 -29.339844 15.285156 -29.59375 15.0625 -29.875 C 14.867188 -30.125 14.53125 -30.210938 14.195312 -30.179688 C 13.859375 -30.125 13.664062 -29.902344 13.46875 -29.675781 C 12.738281 -28.78125 12.066406 -27.828125 11.449219 -26.878906 C 11.253906 -26.570312 11.058594 -26.511719 10.722656 -26.570312 C 9.378906 -26.847656 8.0625 -27.101562 6.746094 -27.324219 C 2.910156 -27.96875 -0.925781 -28.195312 -4.789062 -27.691406 C -6.550781 -27.464844 -8.289062 -27.074219 -9.882812 -26.261719 C -10.441406 -25.953125 -10.976562 -25.644531 -11.253906 -25.03125 C -11.480469 -24.636719 -11.28125 -24.300781 -10.777344 -24.132812 C -10.5 -24.050781 -10.105469 -23.855469 -10.21875 -24.496094 C -10.246094 -24.582031 -10.078125 -24.695312 -9.96875 -24.804688 C -9.433594 -25.308594 -8.792969 -25.644531 -8.089844 -25.871094 C -7.140625 -26.207031 -6.132812 -26.484375 -5.125 -26.652344 C 0.0859375 -27.464844 5.261719 -27.019531 10.414062 -26.039062 C 10.945312 -25.953125 10.667969 -25.730469 10.554688 -25.503906 C 9.714844 -24.21875 8.902344 -22.929688 8.089844 -21.640625 C 5.261719 -17.164062 2.464844 -12.625 0.449219 -7.699219 C -0.699219 -4.925781 -1.429688 -2.015625 -1.539062 1.007812 C -1.625 3.5 0.335938 4.789062 2.605469 3.695312 C 3.386719 3.304688 4.144531 2.828125 4.871094 2.324219 C 8.089844 0.0859375 11.144531 -2.464844 14.558594 -4.453125 Z M 14.558594 -4.453125 "/></g></g></g><g fill="#794f42" fill-opacity="1"><g transform="translate(113.825355, 123.333647)"><g><path d="M -0.21875 -1.140625 C -0.0625 -1.335938 0.0351562 -1.5 0.078125 -1.625 C 0.117188 -1.757812 0.0976562 -1.90625 0.015625 -2.0625 C -0.0546875 -2.226562 -0.226562 -2.4375 -0.5 -2.6875 L -4.515625 -6.21875 C -4.910156 -6.5625 -5.210938 -6.859375 -5.421875 -7.109375 L -6.078125 -6.296875 L -6.875 -7.015625 L -2.25 -12.265625 L -0.171875 -10.53125 L -0.78125 -9.828125 C -1.300781 -10.285156 -1.769531 -10.476562 -2.1875 -10.40625 C -2.601562 -10.332031 -2.957031 -10.113281 -3.25 -9.75 L -3.578125 -9.375 C -3.710938 -9.195312 -3.800781 -9.039062 -3.84375 -8.90625 C -3.894531 -8.769531 -3.878906 -8.617188 -3.796875 -8.453125 C -3.710938 -8.285156 -3.546875 -8.085938 -3.296875 -7.859375 L -1.46875 -6.25 L -0.5 -7.328125 C -0.601562 -7.410156 -0.914062 -7.660156 -1.4375 -8.078125 L -0.71875 -8.890625 L 1.8125 -6.640625 L 1.203125 -5.953125 C 0.929688 -6.191406 0.6875 -6.328125 0.46875 -6.359375 C 0.257812 -6.398438 0.078125 -6.363281 -0.078125 -6.25 C -0.242188 -6.144531 -0.421875 -5.972656 -0.609375 -5.734375 L -0.734375 -5.609375 L 0.734375 -4.3125 C 1.117188 -3.96875 1.421875 -3.675781 1.640625 -3.4375 C 1.816406 -3.675781 2.082031 -4 2.4375 -4.40625 L 3.25 -3.6875 L 0.46875 -0.53125 Z M -0.21875 -1.140625 "/></g></g></g><g fill="#794f42" fill-opacity="1"><g transform="translate(125.578161, 111.133117)"><g><path d="M 4.421875 -3.109375 C 3.253906 -2.210938 2.191406 -1.882812 1.234375 -2.125 C 0.273438 -2.375 -0.609375 -3.03125 -1.421875 -4.09375 L -3.484375 -6.78125 C -3.796875 -7.195312 -4.035156 -7.546875 -4.203125 -7.828125 L -5.015625 -7.140625 L -5.671875 -8 L -2.484375 -10.4375 L -1.921875 -9.703125 C -2.097656 -9.546875 -2.222656 -9.40625 -2.296875 -9.28125 C -2.367188 -9.164062 -2.382812 -9.019531 -2.34375 -8.84375 C -2.3125 -8.664062 -2.1875 -8.429688 -1.96875 -8.140625 L 0.375 -5.09375 C 1.570312 -3.519531 2.796875 -3.207031 4.046875 -4.15625 C 4.628906 -4.601562 4.925781 -5.148438 4.9375 -5.796875 C 4.957031 -6.441406 4.671875 -7.15625 4.078125 -7.9375 L 1.84375 -10.84375 C 1.46875 -11.34375 1.226562 -11.695312 1.125 -11.90625 L 0.3125 -11.21875 L -0.34375 -12.078125 L 2.234375 -14.03125 L 2.796875 -13.296875 C 2.597656 -13.140625 2.460938 -13 2.390625 -12.875 C 2.328125 -12.757812 2.3125 -12.613281 2.34375 -12.4375 C 2.382812 -12.257812 2.515625 -12.023438 2.734375 -11.734375 L 4.859375 -8.953125 C 5.796875 -7.742188 6.195312 -6.648438 6.0625 -5.671875 C 5.925781 -4.691406 5.378906 -3.835938 4.421875 -3.109375 Z M 4.421875 -3.109375 "/></g></g></g><g fill="#794f42" fill-opacity="1"><g transform="translate(141.700685, 100.056742)"><g><path d="M 0.21875 -1.140625 C 0.445312 -1.253906 0.601562 -1.363281 0.6875 -1.46875 C 0.78125 -1.570312 0.820312 -1.710938 0.8125 -1.890625 C 0.8125 -2.078125 0.734375 -2.332031 0.578125 -2.65625 L -1.78125 -7.46875 C -2.007812 -7.9375 -2.171875 -8.328125 -2.265625 -8.640625 L -3.203125 -8.140625 L -3.671875 -9.109375 L -0.0625 -10.875 L 0.328125 -10.046875 C 0.117188 -9.921875 -0.03125 -9.804688 -0.125 -9.703125 C -0.226562 -9.597656 -0.273438 -9.457031 -0.265625 -9.28125 C -0.265625 -9.101562 -0.179688 -8.847656 -0.015625 -8.515625 L 2.328125 -3.703125 C 2.554688 -3.253906 2.722656 -2.875 2.828125 -2.5625 L 4.515625 -3.390625 C 5.015625 -3.648438 5.316406 -4.019531 5.421875 -4.5 C 5.523438 -4.976562 5.414062 -5.554688 5.09375 -6.234375 L 5.9375 -6.640625 L 7.328125 -3.578125 L 0.625 -0.3125 Z M 0.21875 -1.140625 "/></g></g></g><g fill="#794f42" fill-opacity="1"><g transform="translate(157.710792, 93.161003)"><g><path d="M 0.421875 -1.078125 C 0.671875 -1.148438 0.847656 -1.226562 0.953125 -1.3125 C 1.066406 -1.394531 1.132812 -1.523438 1.15625 -1.703125 C 1.1875 -1.890625 1.15625 -2.160156 1.0625 -2.515625 L -0.359375 -7.6875 C -0.492188 -8.1875 -0.585938 -8.597656 -0.640625 -8.921875 L -1.640625 -8.59375 L -1.921875 -9.640625 L 1.953125 -10.703125 L 2.203125 -9.8125 C 1.960938 -9.738281 1.785156 -9.65625 1.671875 -9.5625 C 1.554688 -9.476562 1.484375 -9.34375 1.453125 -9.15625 C 1.421875 -8.976562 1.453125 -8.710938 1.546875 -8.359375 L 2.96875 -3.203125 C 3.101562 -2.710938 3.203125 -2.3125 3.265625 -2 L 5.0625 -2.5 C 5.601562 -2.65625 5.96875 -2.957031 6.15625 -3.40625 C 6.351562 -3.863281 6.351562 -4.453125 6.15625 -5.171875 L 7.0625 -5.421875 L 7.859375 -2.15625 L 0.671875 -0.1875 Z M 0.421875 -1.078125 "/></g></g></g><g fill="#794f42" fill-opacity="1"><g transform="translate(174.835189, 89.42135)"><g/></g></g><g fill="#794f42" fill-opacity="1"><g transform="translate(187.586455, 88.616896)"><g><path d="M 4.28125 0.453125 C 3.894531 0.429688 3.488281 0.347656 3.0625 0.203125 C 2.644531 0.0664062 2.257812 -0.117188 1.90625 -0.359375 L 1.890625 -0.359375 L 1.90625 0.234375 L 0.828125 0.171875 L 1 -3.109375 L 1.921875 -3.0625 C 2.003906 -2.28125 2.265625 -1.671875 2.703125 -1.234375 C 3.148438 -0.804688 3.710938 -0.570312 4.390625 -0.53125 C 4.859375 -0.507812 5.257812 -0.613281 5.59375 -0.84375 C 5.925781 -1.082031 6.101562 -1.382812 6.125 -1.75 C 6.132812 -2.050781 6.039062 -2.316406 5.84375 -2.546875 C 5.644531 -2.773438 5.425781 -2.957031 5.1875 -3.09375 C 4.945312 -3.226562 4.550781 -3.421875 4 -3.671875 C 2.988281 -4.148438 2.226562 -4.660156 1.71875 -5.203125 C 1.207031 -5.753906 0.972656 -6.453125 1.015625 -7.296875 C 1.046875 -7.734375 1.175781 -8.148438 1.40625 -8.546875 C 1.644531 -8.941406 2.015625 -9.257812 2.515625 -9.5 C 3.023438 -9.738281 3.664062 -9.835938 4.4375 -9.796875 C 4.84375 -9.773438 5.257812 -9.691406 5.6875 -9.546875 C 6.113281 -9.398438 6.46875 -9.21875 6.75 -9 L 6.765625 -9 L 6.734375 -9.5625 L 7.828125 -9.5 L 7.640625 -6.234375 L 6.71875 -6.28125 C 6.632812 -7.0625 6.394531 -7.660156 6 -8.078125 C 5.613281 -8.503906 5.101562 -8.738281 4.46875 -8.78125 C 4.039062 -8.800781 3.671875 -8.703125 3.359375 -8.484375 C 3.046875 -8.273438 2.878906 -8 2.859375 -7.65625 C 2.835938 -7.25 2.988281 -6.894531 3.3125 -6.59375 C 3.644531 -6.300781 4.210938 -5.960938 5.015625 -5.578125 C 5.929688 -5.148438 6.671875 -4.675781 7.234375 -4.15625 C 7.796875 -3.644531 8.050781 -2.984375 8 -2.171875 C 7.96875 -1.617188 7.789062 -1.132812 7.46875 -0.71875 C 7.15625 -0.300781 6.71875 0.00390625 6.15625 0.203125 C 5.601562 0.410156 4.976562 0.492188 4.28125 0.453125 Z M 4.28125 0.453125 "/></g></g></g><g fill="#794f42" fill-opacity="1"><g transform="translate(204.832154, 90.402999)"><g><path d="M 2.65625 -0.28125 C 2.90625 -0.226562 3.101562 -0.210938 3.25 -0.234375 C 3.394531 -0.253906 3.519531 -0.332031 3.625 -0.46875 C 3.738281 -0.613281 3.835938 -0.863281 3.921875 -1.21875 L 5.5625 -7.71875 L 4.9375 -7.875 C 4.394531 -8 3.929688 -7.921875 3.546875 -7.640625 C 3.171875 -7.359375 2.894531 -6.863281 2.71875 -6.15625 L 1.828125 -6.390625 L 2.671875 -9.421875 L 10.90625 -7.359375 L 10.203125 -4.28125 L 9.3125 -4.5 C 9.488281 -5.207031 9.472656 -5.785156 9.265625 -6.234375 C 9.066406 -6.679688 8.707031 -6.960938 8.1875 -7.078125 L 7.53125 -7.25 L 5.9375 -0.890625 C 5.78125 -0.273438 5.65625 0.128906 5.5625 0.328125 C 5.882812 0.378906 6.253906 0.457031 6.671875 0.5625 L 6.40625 1.609375 L 2.4375 0.609375 Z M 2.65625 -0.28125 "/></g></g></g><g fill="#794f42" fill-opacity="1"><g transform="translate(222.104377, 95.620958)"><g><path d="M 0.46875 -0.84375 C 0.675781 -0.738281 0.882812 -0.71875 1.09375 -0.78125 C 1.300781 -0.84375 1.488281 -0.941406 1.65625 -1.078125 C 1.832031 -1.222656 2.066406 -1.4375 2.359375 -1.71875 L 8.015625 -7.328125 L 8.90625 -6.921875 L 8.359375 1.265625 C 8.335938 1.460938 8.304688 1.703125 8.265625 1.984375 C 8.222656 2.273438 8.171875 2.503906 8.109375 2.671875 C 8.398438 2.785156 8.648438 2.894531 8.859375 3 L 8.40625 3.96875 L 5 2.359375 L 5.390625 1.53125 C 5.796875 1.71875 6.078125 1.640625 6.234375 1.296875 C 6.316406 1.128906 6.367188 0.90625 6.390625 0.625 L 6.46875 -0.1875 L 3.6875 -1.421875 L 3.21875 -0.9375 C 3.15625 -0.875 3.023438 -0.742188 2.828125 -0.546875 C 2.628906 -0.359375 2.457031 -0.207031 2.3125 -0.09375 C 2.601562 0 2.910156 0.125 3.234375 0.28125 L 2.75 1.296875 L 0.0625 0.03125 Z M 6.578125 -1.234375 L 6.75 -3.09375 C 6.820312 -3.894531 6.925781 -4.550781 7.0625 -5.0625 C 6.632812 -4.519531 6.207031 -4.035156 5.78125 -3.609375 L 4.453125 -2.234375 Z M 6.578125 -1.234375 "/></g></g></g><g fill="#794f42" fill-opacity="1"><g transform="translate(238.255288, 104.19048)"><g><path d="M 4.125 3.328125 C 3.363281 2.765625 2.820312 2.085938 2.5 1.296875 C 2.175781 0.515625 2.078125 -0.300781 2.203125 -1.15625 C 2.335938 -2.007812 2.679688 -2.804688 3.234375 -3.546875 C 3.753906 -4.253906 4.40625 -4.816406 5.1875 -5.234375 C 5.976562 -5.660156 6.820312 -5.859375 7.71875 -5.828125 C 8.613281 -5.796875 9.472656 -5.472656 10.296875 -4.859375 C 10.597656 -4.628906 10.882812 -4.335938 11.15625 -3.984375 C 11.4375 -3.628906 11.660156 -3.253906 11.828125 -2.859375 L 11.84375 -2.84375 L 12.140625 -3.359375 L 13 -2.71875 L 11.0625 -0.09375 L 10.328125 -0.625 C 11.046875 -2.019531 10.882812 -3.117188 9.84375 -3.921875 C 9.34375 -4.296875 8.804688 -4.460938 8.234375 -4.421875 C 7.660156 -4.390625 7.109375 -4.191406 6.578125 -3.828125 C 6.046875 -3.472656 5.570312 -3.019531 5.15625 -2.46875 C 4.675781 -1.820312 4.34375 -1.171875 4.15625 -0.515625 C 3.96875 0.128906 3.945312 0.71875 4.09375 1.25 C 4.25 1.789062 4.570312 2.242188 5.0625 2.609375 C 5.550781 2.972656 6.113281 3.203125 6.75 3.296875 C 7.394531 3.390625 8.03125 3.335938 8.65625 3.140625 L 8.84375 4.03125 C 7.832031 4.351562 6.9375 4.421875 6.15625 4.234375 C 5.382812 4.054688 4.707031 3.753906 4.125 3.328125 Z M 4.125 3.328125 "/></g></g></g><g fill="#794f42" fill-opacity="1"><g transform="translate(252.621787, 115.925454)"><g><path d="M 1.15625 -0.09375 C 1.332031 0.0820312 1.484375 0.203125 1.609375 0.265625 C 1.734375 0.328125 1.878906 0.328125 2.046875 0.265625 C 2.222656 0.210938 2.445312 0.0625 2.71875 -0.1875 L 6.703125 -3.765625 C 7.085938 -4.109375 7.414062 -4.375 7.6875 -4.5625 L 6.953125 -5.3125 L 7.75 -6.03125 L 10.4375 -3.03125 L 9.75 -2.421875 C 9.582031 -2.597656 9.429688 -2.71875 9.296875 -2.78125 C 9.171875 -2.851562 9.019531 -2.859375 8.84375 -2.796875 C 8.664062 -2.742188 8.441406 -2.597656 8.171875 -2.359375 L 6.59375 -0.9375 L 7.28125 -0.1875 L 9.359375 -0.59375 C 10.253906 -0.789062 10.816406 -0.867188 11.046875 -0.828125 L 11.0625 -0.84375 C 10.894531 -0.988281 10.757812 -1.113281 10.65625 -1.21875 C 10.5625 -1.332031 10.476562 -1.410156 10.40625 -1.453125 L 11.203125 -2.171875 L 13.515625 0.375 L 12.828125 0.984375 C 12.546875 0.691406 12.21875 0.476562 11.84375 0.34375 C 11.46875 0.21875 10.960938 0.210938 10.328125 0.328125 L 7.8125 0.765625 L 7.796875 0.78125 C 7.878906 1.1875 7.878906 1.582031 7.796875 1.96875 L 7.25 4.421875 C 6.976562 5.585938 7.007812 6.378906 7.34375 6.796875 L 6.65625 7.40625 L 5.21875 5.796875 C 5.15625 5.710938 5.140625 5.445312 5.171875 5 C 5.210938 4.5625 5.273438 4.171875 5.359375 3.828125 L 5.9375 1.453125 C 5.976562 1.222656 6.019531 0.988281 6.0625 0.75 C 6.101562 0.519531 6.117188 0.332031 6.109375 0.1875 L 5.765625 -0.1875 L 4.1875 1.234375 C 3.800781 1.578125 3.476562 1.847656 3.21875 2.046875 C 3.4375 2.242188 3.679688 2.492188 3.953125 2.796875 L 3.15625 3.515625 L 0.46875 0.515625 Z M 1.15625 -0.09375 "/></g></g></g><g fill="#794f42" fill-opacity="1"><g transform="translate(110.435922, 264.587576)"><g><path d="M 1.140625 -0.15625 C 1.328125 0 1.484375 0.101562 1.609375 0.15625 C 1.742188 0.21875 1.894531 0.210938 2.0625 0.140625 C 2.238281 0.078125 2.453125 -0.0820312 2.703125 -0.34375 L 6.46875 -4.15625 C 6.832031 -4.519531 7.144531 -4.800781 7.40625 -5 L 6.625 -5.703125 L 7.375 -6.46875 L 10.296875 -3.625 C 11.117188 -2.800781 11.65625 -1.941406 11.90625 -1.046875 C 12.164062 -0.148438 12.175781 0.695312 11.9375 1.5 C 11.707031 2.300781 11.304688 2.988281 10.734375 3.5625 C 10.148438 4.144531 9.457031 4.570312 8.65625 4.84375 C 7.851562 5.125 6.984375 5.148438 6.046875 4.921875 C 5.117188 4.703125 4.21875 4.160156 3.34375 3.296875 L 0.5 0.5 Z M 4.28125 2.796875 C 4.75 3.253906 5.257812 3.507812 5.8125 3.5625 C 6.363281 3.625 6.90625 3.53125 7.4375 3.28125 C 7.976562 3.039062 8.476562 2.6875 8.9375 2.21875 C 9.9375 1.207031 10.46875 0.257812 10.53125 -0.625 C 10.601562 -1.519531 10.265625 -2.335938 9.515625 -3.078125 C 9.285156 -3.304688 9.066406 -3.410156 8.859375 -3.390625 C 8.648438 -3.378906 8.378906 -3.203125 8.046875 -2.859375 L 4.25 0.96875 C 3.882812 1.34375 3.578125 1.632812 3.328125 1.84375 C 3.367188 1.863281 3.4375 1.921875 3.53125 2.015625 L 3.9375 2.453125 C 4.03125 2.546875 4.144531 2.660156 4.28125 2.796875 Z M 4.28125 2.796875 "/></g></g></g><g fill="#794f42" fill-opacity="1"><g transform="translate(126.363445, 278.684033)"><g><path d="M 1.09375 -0.375 C 1.3125 -0.25 1.488281 -0.175781 1.625 -0.15625 C 1.757812 -0.132812 1.898438 -0.171875 2.046875 -0.265625 C 2.203125 -0.359375 2.378906 -0.5625 2.578125 -0.875 L 5.515625 -5.359375 C 5.796875 -5.785156 6.046875 -6.125 6.265625 -6.375 L 5.375 -6.90625 L 5.953125 -7.8125 L 11.796875 -3.984375 L 10.390625 -1.65625 L 9.609375 -2.171875 C 9.992188 -2.753906 10.117188 -3.25 9.984375 -3.65625 C 9.859375 -4.0625 9.597656 -4.378906 9.203125 -4.609375 L 8.75 -4.875 C 8.570312 -4.976562 8.410156 -5.046875 8.265625 -5.078125 C 8.128906 -5.109375 7.976562 -5.070312 7.8125 -4.96875 C 7.65625 -4.863281 7.484375 -4.664062 7.296875 -4.375 L 6.15625 -2.625 L 7.53125 -1.71875 C 7.601562 -1.851562 7.8125 -2.203125 8.15625 -2.765625 L 9.0625 -2.171875 L 7.1875 0.671875 L 6.40625 0.15625 C 6.613281 -0.15625 6.71875 -0.414062 6.71875 -0.625 C 6.726562 -0.832031 6.664062 -1.007812 6.53125 -1.15625 C 6.394531 -1.3125 6.203125 -1.46875 5.953125 -1.625 L 5.625 -1.8125 L 4.375 0.109375 C 4.09375 0.523438 3.851562 0.863281 3.65625 1.125 L 5.21875 2.140625 C 5.625 2.410156 6.050781 2.5 6.5 2.40625 C 6.945312 2.3125 7.363281 1.972656 7.75 1.390625 L 8.515625 1.890625 L 6.765625 4.4375 L 0.59375 0.390625 Z M 1.09375 -0.375 "/></g></g></g><g fill="#794f42" fill-opacity="1"><g transform="translate(143.090859, 288.459215)"><g><path d="M 3.953125 -6.421875 C 3.941406 -7.085938 3.988281 -7.546875 4.09375 -7.796875 L 3.359375 -8.03125 L 3.765625 -9.03125 L 7.59375 -7.484375 L 7.25 -6.640625 C 6.695312 -6.890625 6.34375 -6.820312 6.1875 -6.4375 C 6.125 -6.300781 6.097656 -6.140625 6.109375 -5.953125 L 6.109375 -2.53125 C 6.117188 -2.238281 6.117188 -1.863281 6.109375 -1.40625 C 6.109375 -1.25 6.101562 -0.90625 6.09375 -0.375 L 6.109375 -0.359375 L 7.453125 -1.90625 L 9.53125 -4.21875 C 9.976562 -4.738281 10.316406 -5.0625 10.546875 -5.1875 L 10.5625 -5.203125 L 9.53125 -5.546875 L 9.9375 -6.546875 L 12.859375 -5.375 L 12.515625 -4.53125 C 12.203125 -4.625 11.894531 -4.609375 11.59375 -4.484375 C 11.289062 -4.359375 10.953125 -4.09375 10.578125 -3.6875 L 5.1875 2.1875 L 4.125 1.765625 Z M 3.953125 -6.421875 "/></g></g></g><g fill="#794f42" fill-opacity="1"><g transform="translate(162.52145, 295.125718)"><g><path d="M 0.859375 -0.78125 C 1.109375 -0.738281 1.300781 -0.726562 1.4375 -0.75 C 1.570312 -0.78125 1.691406 -0.867188 1.796875 -1.015625 C 1.898438 -1.171875 1.988281 -1.429688 2.0625 -1.796875 L 3.0625 -7.0625 C 3.15625 -7.570312 3.253906 -7.976562 3.359375 -8.28125 L 2.3125 -8.4375 L 2.515625 -9.5 L 9.390625 -8.1875 L 8.96875 -5.5 L 8.0625 -5.671875 C 8.1875 -6.359375 8.109375 -6.863281 7.828125 -7.1875 C 7.554688 -7.507812 7.195312 -7.703125 6.75 -7.765625 L 6.234375 -7.84375 C 6.015625 -7.875 5.835938 -7.875 5.703125 -7.84375 C 5.566406 -7.820312 5.445312 -7.726562 5.34375 -7.5625 C 5.238281 -7.40625 5.15625 -7.15625 5.09375 -6.8125 L 4.703125 -4.765625 L 6.3125 -4.46875 C 6.320312 -4.613281 6.378906 -5.007812 6.484375 -5.65625 L 7.546875 -5.453125 L 6.90625 -2.109375 L 5.984375 -2.296875 C 6.054688 -2.671875 6.050781 -2.953125 5.96875 -3.140625 C 5.894531 -3.335938 5.769531 -3.476562 5.59375 -3.5625 C 5.414062 -3.65625 5.175781 -3.722656 4.875 -3.765625 L 4.515625 -3.8125 L 4.09375 -1.546875 C 4 -1.054688 3.90625 -0.660156 3.8125 -0.359375 L 5.65625 -0.015625 C 6.125 0.078125 6.546875 0 6.921875 -0.25 C 7.304688 -0.507812 7.566406 -0.984375 7.703125 -1.671875 L 8.59375 -1.5 L 7.953125 1.515625 L 0.6875 0.125 Z M 0.859375 -0.78125 "/></g></g></g><g fill="#794f42" fill-opacity="1"><g transform="translate(181.679804, 297.749335)"><g><path d="M 0.703125 -0.921875 C 0.953125 -0.929688 1.140625 -0.960938 1.265625 -1.015625 C 1.398438 -1.066406 1.503906 -1.175781 1.578125 -1.34375 C 1.648438 -1.507812 1.6875 -1.773438 1.6875 -2.140625 L 1.6875 -7.5 C 1.6875 -8.019531 1.707031 -8.441406 1.75 -8.765625 L 0.703125 -8.71875 L 0.703125 -9.796875 L 4.71875 -9.796875 L 4.71875 -8.875 C 4.46875 -8.863281 4.273438 -8.832031 4.140625 -8.78125 C 4.015625 -8.726562 3.910156 -8.617188 3.828125 -8.453125 C 3.753906 -8.285156 3.71875 -8.019531 3.71875 -7.65625 L 3.71875 -2.296875 C 3.71875 -1.796875 3.703125 -1.382812 3.671875 -1.0625 L 5.546875 -1.0625 C 6.109375 -1.070312 6.539062 -1.269531 6.84375 -1.65625 C 7.15625 -2.039062 7.3125 -2.609375 7.3125 -3.359375 L 8.25 -3.359375 L 8.15625 0 L 0.703125 0 Z M 0.703125 -0.921875 "/></g></g></g><g fill="#794f42" fill-opacity="1"><g transform="translate(200.767364, 296.810055)"><g><path d="M 5.296875 -0.84375 C 4.203125 -0.613281 3.25 -0.671875 2.4375 -1.015625 C 1.625 -1.359375 0.972656 -1.875 0.484375 -2.5625 C 0.00390625 -3.257812 -0.320312 -4.039062 -0.5 -4.90625 C -0.65625 -5.707031 -0.625 -6.53125 -0.40625 -7.375 C -0.195312 -8.21875 0.21875 -8.960938 0.84375 -9.609375 C 1.476562 -10.253906 2.304688 -10.679688 3.328125 -10.890625 C 4.378906 -11.097656 5.3125 -11.023438 6.125 -10.671875 C 6.945312 -10.316406 7.609375 -9.789062 8.109375 -9.09375 C 8.617188 -8.394531 8.953125 -7.644531 9.109375 -6.84375 C 9.273438 -6.039062 9.25 -5.210938 9.03125 -4.359375 C 8.820312 -3.503906 8.40625 -2.753906 7.78125 -2.109375 C 7.15625 -1.460938 6.328125 -1.039062 5.296875 -0.84375 Z M 5.234375 -1.859375 C 5.828125 -1.984375 6.273438 -2.269531 6.578125 -2.71875 C 6.878906 -3.175781 7.050781 -3.707031 7.09375 -4.3125 C 7.144531 -4.914062 7.109375 -5.53125 6.984375 -6.15625 C 6.722656 -7.46875 6.285156 -8.457031 5.671875 -9.125 C 5.066406 -9.800781 4.316406 -10.050781 3.421875 -9.875 C 2.828125 -9.75 2.367188 -9.453125 2.046875 -8.984375 C 1.734375 -8.523438 1.554688 -7.984375 1.515625 -7.359375 C 1.472656 -6.742188 1.515625 -6.125 1.640625 -5.5 C 1.765625 -4.863281 1.984375 -4.238281 2.296875 -3.625 C 2.609375 -3.019531 3.015625 -2.539062 3.515625 -2.1875 C 4.015625 -1.84375 4.585938 -1.734375 5.234375 -1.859375 Z M 5.234375 -1.859375 "/></g></g></g><g fill="#794f42" fill-opacity="1"><g transform="translate(221.50496, 291.454833)"><g><path d="M 0.28125 -1.109375 C 0.519531 -1.222656 0.6875 -1.328125 0.78125 -1.421875 C 0.882812 -1.523438 0.929688 -1.664062 0.921875 -1.84375 C 0.921875 -2.03125 0.851562 -2.289062 0.71875 -2.625 L -1.375 -7.5625 C -1.570312 -8.039062 -1.710938 -8.441406 -1.796875 -8.765625 L -2.75 -8.296875 L -3.171875 -9.296875 L 0.46875 -10.859375 C 1.632812 -11.359375 2.644531 -11.515625 3.5 -11.328125 C 4.351562 -11.140625 4.984375 -10.570312 5.390625 -9.625 C 5.585938 -9.132812 5.644531 -8.601562 5.5625 -8.03125 C 5.488281 -7.46875 5.234375 -6.925781 4.796875 -6.40625 C 4.367188 -5.894531 3.765625 -5.460938 2.984375 -5.109375 L 2.484375 -4.875 L 2.046875 -4.71875 L 2.515625 -3.578125 C 2.722656 -3.085938 2.878906 -2.6875 2.984375 -2.375 C 3.234375 -2.519531 3.59375 -2.691406 4.0625 -2.890625 L 4.484375 -1.890625 L 0.640625 -0.265625 Z M 2.25 -5.875 C 2.9375 -6.164062 3.363281 -6.554688 3.53125 -7.046875 C 3.707031 -7.535156 3.65625 -8.117188 3.375 -8.796875 C 2.84375 -10.054688 2.003906 -10.441406 0.859375 -9.953125 C 0.554688 -9.828125 0.359375 -9.671875 0.265625 -9.484375 C 0.179688 -9.304688 0.234375 -9.003906 0.421875 -8.578125 L 1.640625 -5.6875 C 1.835938 -5.726562 2.039062 -5.789062 2.25 -5.875 Z M 2.25 -5.875 "/></g></g></g><g fill="#794f42" fill-opacity="1"><g transform="translate(239.102595, 282.921074)"><g><path d="M 0.0625 -1.15625 C 0.269531 -1.300781 0.410156 -1.429688 0.484375 -1.546875 C 0.566406 -1.660156 0.59375 -1.804688 0.5625 -1.984375 C 0.53125 -2.171875 0.414062 -2.414062 0.21875 -2.71875 L -2.765625 -7.171875 C -3.054688 -7.597656 -3.273438 -7.957031 -3.421875 -8.25 L -4.265625 -7.640625 L -4.875 -8.53125 L 0.953125 -12.421875 L 2.53125 -10.203125 L 1.765625 -9.6875 C 1.378906 -10.269531 0.972656 -10.578125 0.546875 -10.609375 C 0.117188 -10.648438 -0.28125 -10.535156 -0.65625 -10.265625 L -1.0625 -9.96875 C -1.238281 -9.832031 -1.367188 -9.707031 -1.453125 -9.59375 C -1.535156 -9.476562 -1.554688 -9.328125 -1.515625 -9.140625 C -1.472656 -8.953125 -1.359375 -8.710938 -1.171875 -8.421875 L 0 -6.6875 L 1.359375 -7.609375 C 1.265625 -7.722656 1.03125 -8.050781 0.65625 -8.59375 L 1.546875 -9.203125 L 3.4375 -6.359375 L 2.65625 -5.828125 C 2.445312 -6.140625 2.242188 -6.335938 2.046875 -6.421875 C 1.859375 -6.515625 1.671875 -6.53125 1.484375 -6.46875 C 1.296875 -6.40625 1.082031 -6.285156 0.84375 -6.109375 L 0.53125 -5.875 L 1.8125 -3.96875 C 2.09375 -3.550781 2.304688 -3.207031 2.453125 -2.9375 L 4.015625 -3.984375 C 4.410156 -4.242188 4.65625 -4.597656 4.75 -5.046875 C 4.851562 -5.492188 4.707031 -6.007812 4.3125 -6.59375 L 5.0625 -7.09375 L 6.71875 -4.5 L 0.578125 -0.390625 Z M 0.0625 -1.15625 "/></g></g></g><g fill="#794f42" fill-opacity="1"><g transform="translate(254.622844, 271.337908)"><g><path d="M -0.15625 -1.15625 C 0.0195312 -1.332031 0.132812 -1.484375 0.1875 -1.609375 C 0.25 -1.742188 0.242188 -1.894531 0.171875 -2.0625 C 0.0976562 -2.226562 -0.0664062 -2.441406 -0.328125 -2.703125 L -4.109375 -6.5 C -4.472656 -6.863281 -4.753906 -7.175781 -4.953125 -7.4375 L -5.65625 -6.671875 L -6.421875 -7.4375 L -3.625 -10.25 C -2.726562 -11.164062 -1.867188 -11.707031 -1.046875 -11.875 C -0.234375 -12.050781 0.53125 -11.773438 1.25 -11.046875 C 1.707031 -10.585938 1.960938 -10.03125 2.015625 -9.375 C 2.078125 -8.726562 1.90625 -8.035156 1.5 -7.296875 C 1.664062 -7.359375 1.867188 -7.394531 2.109375 -7.40625 C 2.347656 -7.414062 2.585938 -7.398438 2.828125 -7.359375 L 3.96875 -7.109375 C 4.539062 -6.992188 4.96875 -6.941406 5.25 -6.953125 C 5.539062 -6.972656 5.789062 -7.085938 6 -7.296875 L 6.65625 -6.640625 L 5.015625 -5.015625 C 4.828125 -4.984375 4.601562 -4.984375 4.34375 -5.015625 C 4.09375 -5.054688 3.769531 -5.125 3.375 -5.21875 L 1.453125 -5.6875 C 1.015625 -5.78125 0.6875 -5.832031 0.46875 -5.84375 L -0.046875 -5.328125 L 1 -4.265625 C 1.382812 -3.890625 1.671875 -3.578125 1.859375 -3.328125 C 2.046875 -3.554688 2.316406 -3.847656 2.671875 -4.203125 L 3.4375 -3.4375 L 0.5 -0.5 Z M -0.28125 -6.5 C 0.257812 -7.050781 0.523438 -7.566406 0.515625 -8.046875 C 0.515625 -8.535156 0.253906 -9.035156 -0.265625 -9.546875 C -0.804688 -10.097656 -1.300781 -10.320312 -1.75 -10.21875 C -2.207031 -10.113281 -2.609375 -9.890625 -2.953125 -9.546875 C -3.179688 -9.328125 -3.296875 -9.113281 -3.296875 -8.90625 C -3.304688 -8.695312 -3.148438 -8.425781 -2.828125 -8.09375 L -0.796875 -6.078125 C -0.566406 -6.242188 -0.394531 -6.382812 -0.28125 -6.5 Z M -0.28125 -6.5 "/></g></g></g></svg>